<svg xmlns="http://www.w3.org/2000/svg" viewBox="0 0 172.54 173.99"><defs><style>.cls-1{fill:#2a284a;}</style></defs><path class="cls-1" d="m95.3,42.71c0,4.51-3.66,8.17-8.17,8.17s-8.17-3.66-8.17-8.17,3.66-8.17,8.17-8.17,8.17,3.66,8.17,8.17"/><path class="cls-1" d="m135.63,23.46c0,3.79-3.07,6.85-6.85,6.85s-6.85-3.07-6.85-6.85,3.07-6.85,6.85-6.85,6.85,3.07,6.85,6.85"/><path class="cls-1" d="m147.76,26.1c0,2.18-1.77,3.95-3.96,3.95s-3.95-1.77-3.95-3.95,1.77-3.96,3.95-3.96,3.96,1.77,3.96,3.96"/><path class="cls-1" d="m112.63,20.03c5.31,3.32,6.92,10.31,3.6,15.62-3.32,5.31-10.32,6.92-15.62,3.6-5.31-3.32-6.92-10.32-3.6-15.62,3.32-5.31,10.32-6.92,15.62-3.59"/><path class="cls-1" d="m121.13,51.67c0,4.51-3.66,8.17-8.17,8.17s-8.17-3.66-8.17-8.17,3.66-8.17,8.17-8.17,8.17,3.66,8.17,8.17"/><path class="cls-1" d="m164.63,60.63c0,3.79-3.07,6.85-6.85,6.85s-6.85-3.07-6.85-6.85,3.07-6.85,6.85-6.85,6.85,3.07,6.85,6.85"/><path class="cls-1" d="m172.54,71.7c0,2.18-1.77,3.96-3.96,3.96s-3.95-1.77-3.95-3.96,1.77-3.95,3.95-3.95,3.96,1.77,3.96,3.95"/><path class="cls-1" d="m148.02,52.46c0,6.26-5.08,11.33-11.33,11.33s-11.34-5.08-11.34-11.33,5.08-11.34,11.34-11.34,11.33,5.08,11.33,11.34"/><path class="cls-1" d="m136.95,74.08c0,4.51-3.66,8.17-8.17,8.17s-8.17-3.66-8.17-8.17,3.66-8.17,8.17-8.17,8.17,3.66,8.17,8.17"/><path class="cls-1" d="m166.47,107.82c0,3.79-3.07,6.85-6.85,6.85s-6.85-3.07-6.85-6.85,3.07-6.85,6.85-6.85,6.85,3.07,6.85,6.85"/><path class="cls-1" d="m161.46,119.15c-2.11.26-3.43,2.37-3.16,4.48.26,2.11,2.37,3.43,4.48,3.16,2.11-.26,3.43-2.37,3.16-4.48-.26-2.11-2.37-3.43-4.48-3.16Z"/><path class="cls-1" d="m158.56,88.57c0,6.26-5.08,11.34-11.34,11.34s-11.33-5.08-11.33-11.34,5.08-11.33,11.33-11.33,11.34,5.08,11.34,11.33"/><path class="cls-1" d="m136.42,101.49c0,4.51-3.66,8.17-8.17,8.17s-8.17-3.66-8.17-8.17,3.66-8.17,8.17-8.17,8.17,3.66,8.17,8.17"/><path class="cls-1" d="m136.02,140.5c3.52,1.39,5.25,5.37,3.86,8.89-1.39,3.52-5.37,5.25-8.89,3.86-3.52-1.39-5.25-5.37-3.86-8.89,1.39-3.52,5.37-5.25,8.89-3.86"/><path class="cls-1" d="m128.25,157.11c-1.85-1.05-4.22-.26-5.27,1.58-1.05,1.85-.26,4.22,1.58,5.27,1.85,1.05,4.22.26,5.27-1.58,1.06-1.85.26-4.22-1.58-5.27Z"/><path class="cls-1" d="m145.91,124.16c0,6.26-5.08,11.33-11.33,11.33s-11.34-5.08-11.34-11.33,5.08-11.34,11.34-11.34,11.33,5.08,11.33,11.34"/><path class="cls-1" d="m119.81,123.37c0,4.51-3.66,8.17-8.17,8.17s-8.17-3.66-8.17-8.17,3.66-8.17,8.17-8.17,8.17,3.66,8.17,8.17"/><path class="cls-1" d="m92.85,157.41c3.23,1.97,4.26,6.19,2.29,9.42-1.97,3.23-6.19,4.26-9.42,2.29-3.23-1.97-4.26-6.19-2.29-9.42,1.97-3.23,6.19-4.26,9.42-2.29"/><path class="cls-1" d="m79.48,170.03c0,2.18-1.77,3.96-3.96,3.96s-3.95-1.77-3.95-3.96,1.77-3.95,3.95-3.95,3.96,1.77,3.96,3.95"/><path class="cls-1" d="m109.07,135.63c5.48,3.03,7.47,9.92,4.44,15.4-3.03,5.48-9.92,7.47-15.4,4.44-5.48-3.02-7.47-9.92-4.44-15.4,3.03-5.48,9.92-7.47,15.4-4.44"/><path class="cls-1" d="m92.8,127.55c2.06,4.02.47,8.94-3.55,11-4.02,2.06-8.94.46-11-3.55-2.06-4.02-.46-8.94,3.55-11,4.02-2.06,8.94-.47,11,3.55"/><path class="cls-1" d="m50.75,150.52c0,3.78-3.07,6.85-6.85,6.85s-6.85-3.07-6.85-6.85,3.07-6.85,6.85-6.85,6.85,3.07,6.85,6.85"/><path class="cls-1" d="m32.82,147.89c0,2.18-1.77,3.96-3.95,3.96s-3.96-1.77-3.96-3.96,1.77-3.95,3.96-3.95,3.95,1.77,3.95,3.95"/><path class="cls-1" d="m67.73,133.08c6.19.95,10.44,6.73,9.49,12.92-.95,6.19-6.73,10.44-12.92,9.49-6.19-.95-10.44-6.73-9.49-12.92.95-6.19,6.73-10.44,12.92-9.49"/><path class="cls-1" d="m67.88,122.32c0,4.51-3.66,8.17-8.17,8.17s-8.17-3.66-8.17-8.17,3.66-8.17,8.17-8.17,8.17,3.66,8.17,8.17"/><path class="cls-1" d="m21.75,113.35c0,3.79-3.07,6.85-6.85,6.85s-6.85-3.07-6.85-6.85,3.07-6.85,6.85-6.85,6.85,3.07,6.85,6.85"/><path class="cls-1" d="m6.72,105.18c1.58-1.58,1.58-3.95,0-5.54-1.58-1.58-3.95-1.58-5.54,0-1.58,1.58-1.58,3.95,0,5.54,1.58,1.32,3.96,1.32,5.54,0Z"/><path class="cls-1" d="m47.32,121.53c0,6.26-5.08,11.34-11.34,11.34s-11.33-5.08-11.33-11.34,5.08-11.33,11.33-11.33,11.34,5.08,11.34,11.33"/><path class="cls-1" d="m52.06,99.91c0,4.51-3.66,8.17-8.17,8.17s-8.17-3.66-8.17-8.17,3.66-8.17,8.17-8.17,8.17,3.66,8.17,8.17"/><path class="cls-1" d="m19.9,66.17c0,3.78-3.07,6.85-6.85,6.85s-6.85-3.07-6.85-6.85,3.07-6.85,6.85-6.85,6.85,3.07,6.85,6.85"/><path class="cls-1" d="m11.2,54.83c2.11-.26,3.43-2.37,3.16-4.48-.26-2.11-2.37-3.43-4.48-3.16-2.11.26-3.43,2.37-3.16,4.48.53,2.11,2.37,3.43,4.48,3.16Z"/><path class="cls-1" d="m36.77,85.41c0,6.26-5.08,11.33-11.33,11.33s-11.34-5.08-11.34-11.33,5.08-11.34,11.34-11.34,11.33,5.08,11.33,11.34"/><path class="cls-1" d="m52.59,72.49c0,4.51-3.66,8.17-8.17,8.17s-8.17-3.66-8.17-8.17,3.66-8.17,8.17-8.17,8.17,3.66,8.17,8.17"/><path class="cls-1" d="m42.04,20.88c3.44,1.58,4.95,5.65,3.37,9.09-1.58,3.44-5.64,4.95-9.09,3.38-3.44-1.58-4.95-5.65-3.38-9.09,1.58-3.44,5.65-4.95,9.09-3.37"/><path class="cls-1" d="m44.42,16.87c1.85,1.05,4.22.26,5.27-1.58,1.05-1.85.26-4.22-1.58-5.27-1.85-1.05-4.22-.26-5.27,1.58-1.06,1.85-.26,4.22,1.58,5.27Z"/><path class="cls-1" d="m49.43,49.82c0,6.26-5.08,11.34-11.34,11.34s-11.33-5.08-11.33-11.34,5.08-11.33,11.33-11.33,11.34,5.08,11.34,11.33"/><path class="cls-1" d="m66.76,44.81c3.19,3.19,3.19,8.36,0,11.56-3.19,3.19-8.37,3.19-11.56,0-3.19-3.19-3.19-8.37,0-11.56,3.19-3.19,8.36-3.19,11.56,0"/><path class="cls-1" d="m85.01,4.05c3.68.9,5.93,4.6,5.04,8.28-.9,3.68-4.6,5.93-8.28,5.04-3.68-.9-5.93-4.6-5.04-8.28.9-3.68,4.6-5.93,8.28-5.04"/><path class="cls-1" d="m101.1,3.96c0,2.18-1.77,3.95-3.95,3.95s-3.96-1.77-3.96-3.95,1.77-3.96,3.96-3.96,3.95,1.77,3.95,3.96"/><path class="cls-1" d="m74.83,18.68c5.39,3.19,7.17,10.14,3.99,15.53-3.18,5.39-10.14,7.17-15.52,3.99-5.39-3.19-7.17-10.14-3.99-15.53,3.18-5.39,10.14-7.17,15.52-3.99"/></svg>